<?xml version="1.0" standalone="no"?>
<!DOCTYPE svg PUBLIC "-//W3C//DTD SVG 20010904//EN"
 "http://www.w3.org/TR/2001/REC-SVG-20010904/DTD/svg10.dtd">
<svg version="1.0" xmlns="http://www.w3.org/2000/svg"
 width="512.000000pt" height="512.000000pt" viewBox="0 0 512.000000 512.000000"
 preserveAspectRatio="xMidYMid meet">

<g transform="translate(0.000000,512.000000) scale(0.100000,-0.100000)"
fill="#000000" stroke="none">
<path d="M1492 4869 c-24 -12 -54 -38 -67 -58 -13 -20 -339 -797 -724 -1728
-517 -1248 -701 -1701 -701 -1730 0 -46 28 -110 61 -140 33 -30 6 -18 1224
-524 1053 -438 1092 -453 1155 -453 63 0 92 11 860 329 671 279 800 335 830
365 30 31 101 195 510 1180 446 1077 475 1149 475 1205 0 74 -28 124 -88 159
-23 14 -793 336 -1712 717 -1820 754 -1735 723 -1823 678z m1685 -1045 c819
-339 1489 -617 1490 -618 2 -1 -775 -1878 -779 -1881 -2 -1 -214 86 -473 193
-393 164 -478 196 -520 196 -62 0 -125 -33 -158 -83 -13 -20 -108 -241 -211
-491 -103 -250 -189 -456 -191 -458 -4 -4 -1880 775 -1880 781 0 7 1229 2977
1232 2977 2 0 672 -277 1490 -616z m72 -2661 c179 -74 230 -99 215 -105 -254
-107 -648 -267 -651 -264 -4 3 169 434 184 459 2 4 7 7 11 7 4 0 112 -43 241
-97z"/>
<path d="M1980 2848 c-91 -38 -169 -73 -173 -77 -6 -6 292 -751 308 -769 2 -2
1356 556 1362 561 0 1 -32 81 -72 177 -59 141 -77 175 -92 173 -10 -1 -236
-92 -502 -203 -266 -110 -485 -199 -486 -198 -1 2 -39 94 -85 206 -45 111 -86
202 -89 201 -3 -1 -80 -32 -171 -71z"/>
</g>
</svg>
